<svg xmlns="http://www.w3.org/2000/svg" viewBox="0 0 107.68 123.41"><defs><style>.cls-1{fill:#fff;}.cls-2{fill:#fed066;}.cls-3{fill:#f9ddac;}</style></defs><g id="Capa_2" data-name="Capa 2"><g id="Capa_1-2" data-name="Capa 1"><path class="cls-1" d="M25.16,118.41h44.3a11.09,11.09,0,0,0,11.07-11.08v-6.64H91.61a11.09,11.09,0,0,0,11.07-11.08V51.74A11.09,11.09,0,0,0,91.61,40.66H80.53V34a11,11,0,0,0-4.22-19.62A11.26,11.26,0,0,0,70,14.8,11.1,11.1,0,0,0,60.6,9.65a11,11,0,0,0-4.18.82A19.82,19.82,0,0,0,26.15,14,20,20,0,0,0,5,33.86V60.44a6.72,6.72,0,0,0,6.76,6.65,6.63,6.63,0,0,0,2.32-.42v40.66a11.09,11.09,0,0,0,11.08,11.08Z"/><path class="cls-1" d="M69.46,123.41H25.16A16.09,16.09,0,0,1,9.08,107.33V71.78A11.68,11.68,0,0,1,0,60.44V33.86A25,25,0,0,1,23.64,9a24.8,24.8,0,0,1,34-4.06,16.69,16.69,0,0,1,3-.28A16,16,0,0,1,71.82,9.21a16.67,16.67,0,0,1,5.54.24A16,16,0,0,1,86,35.66h5.61a16.09,16.09,0,0,1,16.07,16.08V89.61a16.09,16.09,0,0,1-16.07,16.08H85.53v1.64A16.09,16.09,0,0,1,69.46,123.41ZM19.08,59.46v47.87a6.09,6.09,0,0,0,6.08,6.08h44.3a6.08,6.08,0,0,0,6.07-6.08V95.69H91.61a6.08,6.08,0,0,0,6.07-6.08V51.74a6.08,6.08,0,0,0-6.07-6.08H75.53V31.46l2-1.5a6,6,0,0,0-2.27-10.73,6.21,6.21,0,0,0-3.53.24l-3.81,1.45-2.19-3.44a6,6,0,0,0-5.13-2.83,5.82,5.82,0,0,0-2.27.45l-3,1.23L53,14.11a14.82,14.82,0,0,0-22.67,2.63l-1.58,2.4L25.87,19a15,15,0,0,0-11.2,4.09A14.73,14.73,0,0,0,10,33.86V60.44a1.71,1.71,0,0,0,1.76,1.65,1.6,1.6,0,0,0,.57-.11Z"/><path class="cls-2" d="M78.3,32.79l-42.51.12v74.42c0,4.9,2.72,8.86,6.07,8.86H72.24c3.36,0,6.08-4,6.08-8.86V32.83Z"/><path class="cls-3" d="M81.21,30.11A8.86,8.86,0,0,0,69,27.76a8.87,8.87,0,0,0-8.36-5.93A8.55,8.55,0,0,0,56,23.16a17.62,17.62,0,0,0-28.66,3.13A17.77,17.77,0,0,0,7.21,43.83V60.44a4.54,4.54,0,0,0,4.55,4.43,4.62,4.62,0,0,0,4.54-4.48V42.72a13.23,13.23,0,0,0,11.78-7.47,2.21,2.21,0,0,1,2-1.23,3.87,3.87,0,0,1,2.73,1.09,11.06,11.06,0,0,0,15.72-.2A3,3,0,0,1,50.63,34c9.86,0,9.75,5.64,9.75,8.7v8.86a4.43,4.43,0,0,0,8.86,0V32.88a9.23,9.23,0,0,0,12-2.77Z"/><path d="M60.49,105a2.22,2.22,0,1,0,2.21,2.22A2.21,2.21,0,0,0,60.49,105Z"/><path d="M29.37,49.37a2.21,2.21,0,0,0-2.22,2.21V93.89a2.22,2.22,0,0,0,4.43,0V51.58a2.21,2.21,0,0,0-2.21-2.21Z"/><path d="M47.09,49.37a2.21,2.21,0,0,0-2.22,2.21V93.89a2.22,2.22,0,0,0,4.43,0V51.58a2.21,2.21,0,0,0-2.21-2.21Z"/><path d="M25.16,118.41h44.3a11.09,11.09,0,0,0,11.07-11.08v-6.64H91.61a11.09,11.09,0,0,0,11.07-11.08V51.74A11.09,11.09,0,0,0,91.61,40.66H80.53V34a11,11,0,0,0-4.22-19.62A11.26,11.26,0,0,0,70,14.8,11.1,11.1,0,0,0,60.6,9.65a11,11,0,0,0-4.18.82A19.82,19.82,0,0,0,26.15,14,20,20,0,0,0,5,33.86V60.44a6.72,6.72,0,0,0,6.76,6.65,6.63,6.63,0,0,0,2.32-.42v40.66a11.09,11.09,0,0,0,11.08,11.08ZM69.46,114H25.16a6.66,6.66,0,0,1-6.27-4.43H51.63a2.22,2.22,0,0,0,0-4.43H18.51V44.76a15.35,15.35,0,0,0,11.55-8.53,1.66,1.66,0,0,1,1.18.46,13.27,13.27,0,0,0,18.87-.24.71.71,0,0,1,.52-.22c3.45,0,5.7.74,6.71,2.19a7.5,7.5,0,0,1,.82,4.2v9a6.64,6.64,0,0,0,4.43,6.26V93.89a2.22,2.22,0,0,0,4.43,0v-36a6.64,6.64,0,0,0,4.43-6.26V36a11.74,11.74,0,0,0,4.65,0v69.15H69.34a2.21,2.21,0,1,0,0,4.41h6.38A6.68,6.68,0,0,1,69.46,114ZM80.53,54h8.86V87.4H80.53Zm11.08-8.86a6.65,6.65,0,0,1,6.64,6.65V89.61a6.65,6.65,0,0,1-6.64,6.65H80.53V91.83H91.61a2.21,2.21,0,0,0,2.21-2.22V51.74a2.21,2.21,0,0,0-2.21-2.22H80.53V45.09ZM11.76,62.66a2.31,2.31,0,0,1-2.33-2.22V33.86A15.54,15.54,0,0,1,25,18.39a15.18,15.18,0,0,1,2,.13,2.22,2.22,0,0,0,2.21-1.12,15.42,15.42,0,0,1,25.08-2.73,2.21,2.21,0,0,0,2.83.39,6.41,6.41,0,0,1,3.44-1,6.66,6.66,0,0,1,6.27,4.44,2.21,2.21,0,0,0,3.32,1.11,6.73,6.73,0,0,1,5.19-1,6.66,6.66,0,0,1,5,4.92c1.26,5.59-4.47,10.18-10.11,7.31a2.22,2.22,0,0,0-3.22,2v18.7a2.22,2.22,0,1,1-4.43,0v-9A11.31,11.31,0,0,0,61,35.9c-1.88-2.72-5.36-4.1-10.35-4.1a5.21,5.21,0,0,0-3.71,1.57,8.84,8.84,0,0,1-12.58.16,6.1,6.1,0,0,0-4.28-1.73,4.45,4.45,0,0,0-4,2.48,11,11,0,0,1-9.81,6.23,2.21,2.21,0,0,0-2.2,2.21V60.34a2.4,2.4,0,0,1-2.32,2.32Z"/></g></g></svg>